<?xml version="1.0" encoding="utf-8"?>
<!-- Generator: Adobe Illustrator 19.0.0, SVG Export Plug-In . SVG Version: 6.00 Build 0)  -->
<svg version="1.1" id="Layer_1" xmlns="http://www.w3.org/2000/svg" xmlns:xlink="http://www.w3.org/1999/xlink" x="0px" y="0px"
	 viewBox="0 0 256 256" style="enable-background:new 0 0 256 256;" xml:space="preserve">
<style type="text/css">
	.st0{fill:url(#XMLID_10_);}
	.st1{fill:none;stroke:#000000;stroke-width:2;stroke-linecap:round;stroke-miterlimit:10;}
	.st2{fill:none;stroke:#000000;stroke-width:2;stroke-linecap:round;stroke-miterlimit:10;stroke-dasharray:3.0545,6.109;}
	.st3{fill:none;stroke:#000000;stroke-width:2;stroke-linecap:round;stroke-miterlimit:10;stroke-dasharray:3.0545,6.1091;}
	.st4{fill:url(#XMLID_11_);}
	.st5{fill:none;stroke:#FFFFFF;stroke-width:5;stroke-linecap:round;stroke-linejoin:round;stroke-miterlimit:10;}
	.st6{fill:#FFFFFF;}
</style>
<g id="XMLID_67_">
	<g id="XMLID_442_">
		
			<image style="overflow:visible;opacity:0.3;" width="831" height="831" id="XMLID_129_" xlink:href="EC9D74F5B358182E.png"  transform="matrix(0.24 0 0 0.24 28.28 28.28)">
		</image>
		<g id="XMLID_107_">
			<linearGradient id="XMLID_10_" gradientUnits="userSpaceOnUse" x1="59.28" y1="122.9796" x2="196.6789" y2="122.9796">
				<stop  offset="0" style="stop-color:#B267AA"/>
				<stop  offset="1" style="stop-color:#CD774C"/>
			</linearGradient>
			<rect id="XMLID_128_" x="59.3" y="54.3" class="st0" width="137.4" height="137.4"/>
			<g id="XMLID_119_">
				<polyline id="XMLID_127_" class="st1" points="196.7,190.2 196.7,191.7 195.2,191.7 				"/>
				<line id="XMLID_126_" class="st2" x1="189.1" y1="191.7" x2="63.8" y2="191.7"/>
				<polyline id="XMLID_125_" class="st1" points="60.8,191.7 59.3,191.7 59.3,190.2 				"/>
				<line id="XMLID_124_" class="st3" x1="59.3" y1="184.1" x2="59.3" y2="58.8"/>
				<polyline id="XMLID_123_" class="st1" points="59.3,55.8 59.3,54.3 60.8,54.3 				"/>
				<line id="XMLID_122_" class="st2" x1="66.9" y1="54.3" x2="192.1" y2="54.3"/>
				<polyline id="XMLID_121_" class="st1" points="195.2,54.3 196.7,54.3 196.7,55.8 				"/>
				<line id="XMLID_120_" class="st3" x1="196.7" y1="61.9" x2="196.7" y2="187.1"/>
			</g>
		</g>
	</g>
	<linearGradient id="XMLID_11_" gradientUnits="userSpaceOnUse" x1="105.0796" y1="122.9796" x2="150.8793" y2="122.9796">
		<stop  offset="0" style="stop-color:#B267AA"/>
		<stop  offset="1" style="stop-color:#CD774C"/>
	</linearGradient>
	<rect id="XMLID_441_" x="105.1" y="100.1" class="st4" width="45.8" height="45.8"/>
	<g id="XMLID_428_">
		<path id="XMLID_432_" class="st5" d="M103,77.2v57.3c0,7.4,6,13.5,13.5,13.5h57.3"/>
		<line id="XMLID_431_" class="st5" x1="91.3" y1="98" x2="82.2" y2="98"/>
		<path id="XMLID_430_" class="st5" d="M152.9,136.7v-25.2c0-7.4-6-13.5-13.5-13.5h-25.2"/>
		<line id="XMLID_429_" class="st5" x1="152.9" y1="168.8" x2="152.9" y2="159.6"/>
	</g>
	<g id="XMLID_82_">
		<g id="XMLID_395_">
			<g id="XMLID_422_">
				<path id="XMLID_51_" class="st6" d="M196.7,59.9c-3.1,0-5.6-2.5-5.6-5.6s2.5-5.6,5.6-5.6s5.6,2.5,5.6,5.6S199.8,59.9,196.7,59.9
					z"/>
				<path id="XMLID_48_" d="M196.7,49.7c2.5,0,4.6,2.1,4.6,4.6s-2.1,4.6-4.6,4.6s-4.6-2.1-4.6-4.6S194.1,49.7,196.7,49.7
					 M196.7,47.7c-3.6,0-6.6,3-6.6,6.6s3,6.6,6.6,6.6s6.6-3,6.6-6.6S200.3,47.7,196.7,47.7L196.7,47.7z"/>
			</g>
			<g id="XMLID_416_">
				<path id="XMLID_46_" class="st6" d="M196.7,128.6c-3.1,0-5.6-2.5-5.6-5.6s2.5-5.6,5.6-5.6s5.6,2.5,5.6,5.6
					S199.8,128.6,196.7,128.6z"/>
				<path id="XMLID_43_" d="M196.7,118.4c2.5,0,4.6,2.1,4.6,4.6s-2.1,4.6-4.6,4.6s-4.6-2.1-4.6-4.6S194.1,118.4,196.7,118.4
					 M196.7,116.4c-3.6,0-6.6,3-6.6,6.6s3,6.6,6.6,6.6s6.6-3,6.6-6.6S200.3,116.4,196.7,116.4L196.7,116.4z"/>
			</g>
			<g id="XMLID_397_">
				<path id="XMLID_41_" class="st6" d="M196.7,197.3c-3.1,0-5.6-2.5-5.6-5.6c0-3.1,2.5-5.6,5.6-5.6s5.6,2.5,5.6,5.6
					C202.3,194.8,199.8,197.3,196.7,197.3z"/>
				<path id="XMLID_38_" d="M196.7,187.1c2.5,0,4.6,2.1,4.6,4.6s-2.1,4.6-4.6,4.6s-4.6-2.1-4.6-4.6S194.1,187.1,196.7,187.1
					 M196.7,185.1c-3.6,0-6.6,3-6.6,6.6s3,6.6,6.6,6.6s6.6-3,6.6-6.6S200.3,185.1,196.7,185.1L196.7,185.1z"/>
			</g>
		</g>
		<g id="XMLID_348_">
			<g id="XMLID_385_">
				<path id="XMLID_36_" class="st6" d="M59.3,59.9c-3.1,0-5.6-2.5-5.6-5.6s2.5-5.6,5.6-5.6s5.6,2.5,5.6,5.6S62.4,59.9,59.3,59.9z"
					/>
				<path id="XMLID_33_" d="M59.3,49.7c2.5,0,4.6,2.1,4.6,4.6s-2.1,4.6-4.6,4.6s-4.6-2.1-4.6-4.6S56.8,49.7,59.3,49.7 M59.3,47.7
					c-3.6,0-6.6,3-6.6,6.6s3,6.6,6.6,6.6s6.6-3,6.6-6.6S62.9,47.7,59.3,47.7L59.3,47.7z"/>
			</g>
			<g id="XMLID_360_">
				<path id="XMLID_31_" class="st6" d="M59.3,128.6c-3.1,0-5.6-2.5-5.6-5.6s2.5-5.6,5.6-5.6s5.6,2.5,5.6,5.6S62.4,128.6,59.3,128.6
					z"/>
				<path id="XMLID_28_" d="M59.3,118.4c2.5,0,4.6,2.1,4.6,4.6s-2.1,4.6-4.6,4.6s-4.6-2.1-4.6-4.6S56.8,118.4,59.3,118.4
					 M59.3,116.4c-3.6,0-6.6,3-6.6,6.6s3,6.6,6.6,6.6s6.6-3,6.6-6.6S62.9,116.4,59.3,116.4L59.3,116.4z"/>
			</g>
			<g id="XMLID_349_">
				<path id="XMLID_70_" class="st6" d="M59.3,197.3c-3.1,0-5.6-2.5-5.6-5.6c0-3.1,2.5-5.6,5.6-5.6s5.6,2.5,5.6,5.6
					C64.9,194.8,62.4,197.3,59.3,197.3z"/>
				<path id="XMLID_32_" d="M59.3,187.1c2.5,0,4.6,2.1,4.6,4.6s-2.1,4.6-4.6,4.6s-4.6-2.1-4.6-4.6S56.8,187.1,59.3,187.1
					 M59.3,185.1c-3.6,0-6.6,3-6.6,6.6s3,6.6,6.6,6.6s6.6-3,6.6-6.6S62.9,185.1,59.3,185.1L59.3,185.1z"/>
			</g>
		</g>
		<g id="XMLID_316_">
			<path id="XMLID_74_" class="st6" d="M128,59.9c-3.1,0-5.6-2.5-5.6-5.6s2.5-5.6,5.6-5.6s5.6,2.5,5.6,5.6S131.1,59.9,128,59.9z"/>
			<path id="XMLID_71_" d="M128,49.7c2.5,0,4.6,2.1,4.6,4.6s-2.1,4.6-4.6,4.6c-2.5,0-4.6-2.1-4.6-4.6S125.5,49.7,128,49.7 M128,47.7
				c-3.6,0-6.6,3-6.6,6.6s3,6.6,6.6,6.6s6.6-3,6.6-6.6S131.6,47.7,128,47.7L128,47.7z"/>
		</g>
		<g id="XMLID_83_">
			<path id="XMLID_78_" class="st6" d="M128,197.3c-3.1,0-5.6-2.5-5.6-5.6c0-3.1,2.5-5.6,5.6-5.6s5.6,2.5,5.6,5.6
				C133.6,194.8,131.1,197.3,128,197.3z"/>
			<path id="XMLID_75_" d="M128,187.1c2.5,0,4.6,2.1,4.6,4.6s-2.1,4.6-4.6,4.6c-2.5,0-4.6-2.1-4.6-4.6S125.5,187.1,128,187.1
				 M128,185.1c-3.6,0-6.6,3-6.6,6.6s3,6.6,6.6,6.6s6.6-3,6.6-6.6S131.6,185.1,128,185.1L128,185.1z"/>
		</g>
	</g>
</g>
</svg>
