<?xml version="1.0" encoding="utf-8"?>
<!-- Generator: Adobe Illustrator 19.0.0, SVG Export Plug-In . SVG Version: 6.00 Build 0)  -->
<svg version="1.1" id="Capa_1" xmlns="http://www.w3.org/2000/svg" xmlns:xlink="http://www.w3.org/1999/xlink" x="0px" y="0px"
	 viewBox="81 -80.3 289.3 289.3" style="enable-background:new 81 -80.3 289.3 289.3;" xml:space="preserve">
<style type="text/css">
	.st0{fill:url(#SVGID_1_);}
</style>
<linearGradient id="SVGID_1_" gradientUnits="userSpaceOnUse" x1="225.65" y1="209.7" x2="225.65" y2="-79.5551" gradientTransform="matrix(1 0 0 -1 0 129.4)">
	<stop  offset="0" style="stop-color:#B267AA"/>
	<stop  offset="1" style="stop-color:#CD774C"/>
</linearGradient>
<path class="st0" d="M352.7-62.7c-19.6-19.7-49.6-22.8-72.5-9.4L270.5,16c-0.3,2.5-1.4,4.9-3.2,6.7l-22,22c-0.5,0.5-1.3,0.6-1.9,0.3
	c-0.7-0.3-1-1-1-1.7l9.9-90.3L146.4,58.9c-4.3,4.3-6.9,9.9-7.4,15.9l-5.4,60.4l-48.2,48.2c-5.9,5.9-5.9,15.4,0,21.2
	c2.9,2.9,6.8,4.4,10.6,4.4c3.8,0,7.7-1.5,10.6-4.4l48.2-48.2l60.4-5.4c6-0.5,11.7-3.2,15.9-7.4l46.4-46.4l-90.3,9.9
	c-0.7,0.1-1.4-0.3-1.7-1s-0.2-1.4,0.3-1.9l22-22c1.8-1.8,4.2-2.9,6.7-3.2l91.2-10l47-47C376.1-1.4,376.1-39.3,352.7-62.7z"/>
</svg>
