<?xml version="1.0" encoding="utf-8"?>
<!-- Generator: Adobe Illustrator 19.0.0, SVG Export Plug-In . SVG Version: 6.00 Build 0)  -->
<svg version="1.1" id="Capa_1" xmlns="http://www.w3.org/2000/svg" xmlns:xlink="http://www.w3.org/1999/xlink" x="0px" y="0px"
	 viewBox="81 -80.3 289.3 289.3" style="enable-background:new 81 -80.3 289.3 289.3;" xml:space="preserve">
<style type="text/css">
	.st0{fill:url(#SVGID_1_);}
	.st1{fill:#FFFFFF;}
</style>
<linearGradient id="SVGID_1_" gradientUnits="userSpaceOnUse" x1="225.6295" y1="-80.2567" x2="225.6295" y2="208.998">
	<stop  offset="0" style="stop-color:#B267AA"/>
	<stop  offset="1" style="stop-color:#CD774C"/>
</linearGradient>
<path class="st0" d="M350.3,209H101c-11,0-20-9-20-20V-60.3c0-11,9-20,20-20h249.3c11,0,20,9,20,20V189
	C370.3,200,361.3,209,350.3,209z"/>
<g>
	<path class="st1" d="M224.8,140.3c-1.1,5.1-3,9.8-5.8,14c-2.8,4.3-6.8,7.8-11.8,10.6c-5,2.8-11.5,4.2-19.5,4.2
		c-10,0-18.3-2.6-24.9-7.7s-11.1-11.8-13.3-19.9l25.1-8.5c0.8,3.1,2.2,5.6,4.2,7.5c2,1.9,4.6,2.8,7.6,2.8c4.7,0,7.7-1.6,9.2-4.8
		c1.5-3.2,2.2-7.4,2.2-12.6V48.2h28.6v77.4C226.4,130.3,225.9,135.2,224.8,140.3z"/>
	<path class="st1" d="M312.1,78.8c-2.4-3.1-5.6-5.6-9.6-7.4c-3.9-1.8-7.7-2.7-11.4-2.7c-1.9,0-3.8,0.2-5.7,0.5
		c-1.9,0.3-3.7,1-5.2,1.9c-1.6,0.9-2.9,2.2-3.9,3.7c-1.1,1.5-1.6,3.4-1.6,5.7c0,2,0.4,3.7,1.2,5c0.8,1.3,2,2.5,3.7,3.5
		c1.6,1,3.5,1.9,5.7,2.7c2.2,0.8,4.7,1.7,7.5,2.6c4,1.3,8.1,2.8,12.5,4.4c4.3,1.6,8.3,3.7,11.8,6.4c3.5,2.7,6.5,6,8.8,9.9
		c2.3,3.9,3.5,8.8,3.5,14.7c0,6.8-1.2,12.6-3.7,17.5c-2.5,4.9-5.8,9-10.1,12.2c-4.2,3.2-9,5.6-14.5,7.1c-5.4,1.5-11,2.3-16.8,2.3
		c-8.4,0-16.6-1.5-24.4-4.4c-7.9-2.9-14.4-7.1-19.6-12.5l18.6-18.9c2.9,3.5,6.7,6.5,11.4,8.9c4.7,2.4,9.4,3.6,14,3.6
		c2.1,0,4.2-0.2,6.1-0.7c2-0.4,3.7-1.2,5.2-2.2c1.5-1,2.7-2.3,3.6-4c0.9-1.7,1.3-3.7,1.3-6c0-2.2-0.6-4.1-1.7-5.6
		c-1.1-1.5-2.7-3-4.7-4.2c-2.1-1.3-4.6-2.4-7.6-3.5c-3-1.1-6.5-2.2-10.4-3.4c-3.8-1.2-7.5-2.7-11-4.3c-3.6-1.7-6.8-3.8-9.6-6.4
		c-2.8-2.6-5.1-5.8-6.8-9.5c-1.7-3.7-2.6-8.2-2.6-13.5c0-6.5,1.3-12.1,4-16.8c2.7-4.7,6.1-8.5,10.5-11.5c4.3-3,9.2-5.2,14.6-6.6
		c5.4-1.4,10.9-2.1,16.5-2.1c6.6,0,13.4,1.2,20.4,3.7c6.9,2.4,13,6,18.2,10.8L312.1,78.8z"/>
</g>
</svg>
