<?xml version="1.0" encoding="utf-8"?>
<!-- Generator: Adobe Illustrator 19.0.0, SVG Export Plug-In . SVG Version: 6.00 Build 0)  -->
<svg version="1.1" id="Capa_1" xmlns="http://www.w3.org/2000/svg" xmlns:xlink="http://www.w3.org/1999/xlink" x="0px" y="0px"
	 viewBox="81 -80.3 289.3 289.3" style="enable-background:new 81 -80.3 289.3 289.3;" xml:space="preserve">
<style type="text/css">
	.st0{fill:url(#SVGID_1_);}
</style>
<linearGradient id="SVGID_1_" gradientUnits="userSpaceOnUse" x1="225.6295" y1="30.4361" x2="225.6295" y2="209">
	<stop  offset="0" style="stop-color:#B267AA"/>
	<stop  offset="1" style="stop-color:#CD774C"/>
</linearGradient>
<path class="st0" d="M321.6,59.4V35.4c0-2.8-2.2-5-5-5h-65.3c-2.8,0-5,2.2-5,5v23.9c0,2.8-2.2,5-5,5h-31.4c-2.8,0-5-2.2-5-5V35.4
	c0-2.8-2.2-5-5-5h-65.3c-2.8,0-5,2.2-5,5v23.9c0,2.8-2.2,5-5,5H101c-11,0-20,9-20,20V189c0,11,9,20,20,20h249.3c11,0,20-9,20-20
	V84.4c0-11-9-20-20-20h-23.6C323.9,64.4,321.6,62.1,321.6,59.4z"/>
</svg>
